<?xml version="1.0" encoding="utf-8"?>
<!-- Generator: Adobe Illustrator 18.0.0, SVG Export Plug-In . SVG Version: 6.00 Build 0)  -->
<!DOCTYPE svg PUBLIC "-//W3C//DTD SVG 1.1//EN" "http://www.w3.org/Graphics/SVG/1.1/DTD/svg11.dtd">
<svg version="1.1" id="Chandler_Logo" xmlns="http://www.w3.org/2000/svg" xmlns:xlink="http://www.w3.org/1999/xlink" x="0px"
	 y="0px" viewBox="0 0 402 167.3" enable-background="new 0 0 402 167.3" xml:space="preserve">
<g>
	<g>
		<path fill="#CE4753" d="M79.5,115.8c0.2,0,0.4,0,0.7,0v-11.7H76c0.3,4.1,0.9,8.2,1.8,12.1C78.3,116,78.9,115.8,79.5,115.8
			C79.7,115.8,78.9,115.8,79.5,115.8z"/>
		<path fill="#CE4753" d="M80.2,90.6v-8.3c-1.2-0.1-2.4-0.2-3.4-1c-0.5,3.1-0.8,6.2-0.9,9.3H80.2L80.2,90.6z"/>
		<path fill="#CE4753" d="M79.8,69.6h11.7c0.5-1.4,1.1-2.8,1.7-4.2c-1.8,1.2-4,0.8-6.1,0.8c-2.2,0-4.5,0.4-6.3-1.1
			c-0.1,0-0.1,0.1-0.2,0.1c-0.5,1.4-0.9,2.9-1.3,4.4C79.4,69.6,79.6,69.6,79.8,69.6C79.8,69.6,79.6,69.6,79.8,69.6z"/>
		<path fill="#CE4753" d="M104.8,29.1l0.4,0.3c2.3,1.6,2.1,3.9,1.9,6.4c1.3-0.1,2.6,0.2,3.9,0.2c1.4,0,2.7-0.4,4.1,0
			c15.4-12.5,34.2-21.1,53.7-24.8c16.4-3.1,34.2-2.7,49.8,4c10.7,4.6,19.9,12.5,24.8,23.2c-0.7-4.8-3.4-9.2-6.5-12.9
			c-4.1-4.7-9.2-8.5-14.7-11.6C208,5.8,191.2,2.4,175,2.7c-21.4,0.5-42.1,7.6-60,19.1C111.5,24.1,108.1,26.5,104.8,29.1
			C104.8,29.1,104.8,29.1,104.8,29.1C104.8,29.1,104.8,29.1,104.8,29.1z"/>
		<path fill="#CE4753" d="M88.7,128.5h-7.3c9.4,24.5,30.1,39.5,59,26.4C112.9,162.7,95.7,149.4,88.7,128.5
			C88.7,128.5,95.7,149.4,88.7,128.5z"/>
	</g>
	<g>
		<path fill="#174A7C" d="M45.8,107.3l-0.9,14.1c-4.3,2.6-11.7,3.3-16.5,3.3c-18.9,0-25.8-10.3-25.8-25.1c0-7.3,1.6-13.9,6-18.8
			c4.2-4.6,11-7.5,21.1-7.5c3.1,0,11,0.5,15.3,3.2v12.8h-2.7c-2.2-5.8-4-12.7-13.2-12.7c-12.7,0-13.1,17.4-13.1,21.6
			c0,7.9,1.6,23.1,13.8,23.1c7.8,0,10.5-6.2,13.2-14.1H45.8z"/>
		<path fill="#174A7C" d="M68.3,99.1v17.6c0,3.5,0.6,3.9,5.5,4.1v2.7H50.6v-2.7c4.9-0.2,5.5-0.6,5.5-4.1V81.4c0-3.5-0.6-4-5.5-4.1
			v-2.7h23.2v2.7c-4.9,0.1-5.5,0.5-5.5,4.1v14.2h16.9V81.4c0-3.5-0.7-4-5.5-4.1v-2.7H103v2.7c-4.9,0.1-5.5,0.5-5.5,4.1v35.3
			c0,3.5,0.6,3.9,5.5,4.1v2.7H79.8v-2.7c4.9-0.2,5.5-0.5,5.5-4.1V99.1H68.3z"/>
		<path fill="#174A7C" d="M131.3,123.5v-2.7l4.2-0.4c1.4-0.1,1.6-1,1.1-2.5c-1.3-4-2.8-8.8-3.7-11.6H119c-1.2,4-2.5,8.2-3.4,11.7
			c-0.4,1.5-0.2,2.3,1.3,2.5l4.3,0.4v2.7h-16.2v-2.7c3.7-0.2,4.4-0.7,5.6-3.6c3.6-8.5,10.5-29.7,14.7-42.9h9.6
			c4,12.2,11,33.8,14.6,43.2c1,2.8,2,3.2,5.6,3.3v2.7H131.3z M126,84h-0.2c-1.3,4.3-4,13.2-5.8,18.9h11.8
			C130.2,98.2,127.4,88.7,126,84z"/>
		<path fill="#174A7C" d="M192.3,123.5c-8.2-12.9-16.6-26-25.1-39h-0.3v20.7c0,6.1,0.1,8.8,0.4,11.4c0.4,4.7,3,3.8,6.8,4.2v2.7
			h-17.2v-2.7c3.7-0.4,5.1,0.1,5.5-4.2c0.3-2.5,0.4-5.2,0.4-11.4V81.4c0-3.5-0.7-4-5.5-4.1v-2.7h17.1c7.2,11.2,14.3,21.6,21.6,32.6
			h0.3V92.8c0-6-0.1-8.8-0.3-11.3c-0.4-4.7-3-3.8-7-4.2v-2.7h17.1v2.7c-3.7,0.4-4.9-0.1-5.4,4.2c-0.2,2.5-0.3,5.2-0.3,11.3v30.7
			H192.3z"/>
		<path fill="#174A7C" d="M234,74.6c9.3,0,15.3,1.8,19.4,5.8c4,4,5.9,9.8,5.9,17.9c0,24.2-18.7,25.2-29,25.2h-20.6v-2.7
			c4.9-0.2,5.5-0.5,5.5-4.1V81.5c0-3.7-0.7-4-5.5-4.2v-2.7H234z M227.4,117.6c0,1.8,0.8,2.6,5,2.6c6.7,0,13.4-2.8,13.4-21.6
			c0-13.9-5-20.7-13.7-20.7c-4,0-4.7,0.4-4.7,1.7V117.6z"/>
		<path fill="#174A7C" d="M281.5,115.1c0,4.6,1.6,5.1,7.3,5.1c8.2,0,8.6-4.3,11.3-10.9h2.7l-0.7,14.2h-38.4v-2.7
			c4.9-0.2,5.5-0.6,5.5-4.1V81.4c0-3.6-0.7-4-5.5-4.1v-2.7h24.2v2.7c-5.8,0.2-6.4,0.5-6.4,4.1V115.1z"/>
		<path fill="#174A7C" d="M311.5,81.4c0-3.6-0.6-4-5.5-4.1v-2.7h38.3v13.2h-2.7c-2.4-6.9-3.7-9.9-10.8-9.9h-4.8
			c-1.9,0-2.5,0.5-2.5,2.5v15.7h6c4.3,0,5.2-1.2,6.4-6.4h2.7v16.9H336c-1.2-5.2-2.2-6.8-6.4-6.8h-6v15.3c0,4.4,0.4,5.1,8.3,5.1
			c8.3,0,9.5-4.3,12.2-11.7h2.7l-1,15H306v-2.7c4.8-0.1,5.5-0.6,5.5-4.1V81.4z"/>
		<path fill="#174A7C" d="M368.4,116.7c0,3.5,0.6,3.9,5.5,4.1v2.7h-23.3v-2.7c4.9-0.2,5.5-0.6,5.5-4.1V81.4c0-3.6-0.6-3.9-5.5-4.1
			v-2.7h24.7c8.5,0,16.8,1,16.8,12.1c0,7.1-4.9,11-12,11.8v0.4c7.9,1.8,10.5,6.6,11.5,12.2c1,5.5,2.2,9.4,7,9.7v2.7h-5.7
			c-7.9,0-11.4-1.9-13.1-7.2c-1.2-3.6-1.6-7.4-2.1-10c-1-4.2-2.8-5.4-6.7-5.4h-2.6V116.7z M368.4,97.7h2.7c7.5,0,8.5-4.9,8.5-10.1
			c0-6.7-3.2-9.7-7.6-9.7c-3.4,0-3.5,0.6-3.5,2.5V97.7z"/>
	</g>
	<g>
		<path fill="#94A545" d="M77.1,43.6c-0.7-0.8-1.7-1.2-3-1.2c-1.7,0-3,0.8-3.8,2.3c-0.9,1.6-1.3,3.7-1.3,6.5c0,2.6,0.5,4.6,1.6,6
			c1.1,1.4,2.7,2.1,4.7,2.1c0.9,0,1.7-0.2,2.6-0.6c0.8-0.4,1.4-0.9,1.8-1.4l0.5,0.4c-0.2,0.4-0.4,0.8-0.5,1.2
			c-0.1,0.4-0.3,0.9-0.4,1.3C78.8,60.6,78,61,77,61.4c-1,0.3-2.1,0.5-3.4,0.5c-2.1,0-3.8-0.3-5.3-0.9c-1.4-0.6-2.6-1.4-3.4-2.4
			c-0.9-1-1.5-2.2-1.9-3.5c-0.4-1.3-0.6-2.6-0.6-3.9c0-1.6,0.3-3,0.8-4.4c0.5-1.3,1.3-2.5,2.3-3.5c1-1,2.2-1.7,3.6-2.3
			c1.4-0.6,2.9-0.8,4.7-0.8c1.6,0,3,0.2,4.1,0.6c1.1,0.4,2.2,0.9,3.2,1.5c-0.3,0.6-0.7,1.3-1,2.1c-0.3,0.8-0.5,1.6-0.7,2.4h-1
			C78.3,45.4,77.8,44.3,77.1,43.6z"/>
		<path fill="#94A545" d="M84.8,30.3c0.7-0.7,1.5-1,2.4-1c0.9,0,1.7,0.3,2.4,1c0.7,0.7,1,1.5,1,2.4c0,0.9-0.3,1.7-1,2.4
			c-0.7,0.7-1.5,1-2.4,1c-0.9,0-1.7-0.3-2.4-1c-0.7-0.7-1-1.5-1-2.4C83.8,31.7,84.1,30.9,84.8,30.3z M84.2,45.3
			c0-1.5-0.1-3.1-0.3-4.6c0.4,0.1,0.9,0.1,1.4,0.1c0.5,0,1.1,0.1,1.8,0.1c1.3,0,2.4-0.1,3.2-0.2c-0.1,1.5-0.2,3.1-0.3,4.6
			c0,1.5-0.1,3.2-0.1,4.9V52c0,1.7,0,3.4,0.1,4.9c0,1.5,0.1,3,0.3,4.4c-0.4-0.1-0.8-0.1-1.4-0.1c-0.6,0-1.2,0-1.8,0
			c-0.7,0-1.3,0-1.8,0c-0.5,0-1,0-1.4,0.1c0.1-1.4,0.2-2.9,0.3-4.4c0-1.5,0.1-3.2,0.1-4.9v-1.7C84.3,48.5,84.3,46.9,84.2,45.3z"/>
		<path fill="#94A545" d="M105.6,42.1c0,0.4,0,0.7,0.1,1.1l-3.8-0.1c-0.1,0.7-0.1,1.4-0.1,2.3c0,0.9-0.1,1.7-0.1,2.6
			c0,0.9,0,1.7,0,2.6c0,0.8,0,1.5,0,2.1c0,1.5,0,2.7,0.1,3.6c0.1,0.9,0.2,1.6,0.4,2.1c0.2,0.5,0.4,0.8,0.7,1
			c0.3,0.2,0.7,0.3,1.2,0.3c0.5,0,0.9,0,1.2-0.1c0.3-0.1,0.5-0.2,0.8-0.3v1.8c-0.6,0.3-1.3,0.5-2.1,0.7c-0.9,0.2-1.7,0.3-2.5,0.3
			c-3.6,0-5.4-2.2-5.4-6.5c0-0.8,0-1.8,0-2.8c0-1,0.1-2.1,0.1-3.2c0-1.1,0.1-2.2,0.1-3.2c0-1.1,0-2.1,0-3l-3,0
			c0.1-0.3,0.1-0.7,0.1-1.1c0-0.3,0-0.7-0.1-1.2l3,0.1c0-0.9,0-1.7,0-2.5c0-0.8-0.1-1.7-0.1-2.8c1-0.4,2-0.8,2.9-1.3
			c1-0.4,1.9-0.9,2.9-1.4l0.4,0.3c-0.1,0.5-0.1,1-0.1,1.6c0,0.6-0.1,1.3-0.1,1.9c0,0.7-0.1,1.4-0.1,2.1c0,0.7,0,1.4,0,2l3.8-0.1
			C105.7,41.4,105.6,41.8,105.6,42.1z"/>
		<path fill="#94A545" d="M120.5,50.5c0.4-1.1,0.8-2.2,1.2-3.3c0.4-1.1,0.8-2.1,1.1-3.2c0.4-1.1,0.7-2.2,1.1-3.3
			c0.3,0.1,0.6,0.1,0.9,0.1c0.3,0,0.5,0.1,0.8,0.1c0.3,0,0.6,0,0.9-0.1c0.3,0,0.6-0.1,0.9-0.1c-0.1,0.4-0.5,1.2-1,2.4
			c-0.5,1.2-1.2,2.7-1.9,4.5c-0.8,1.8-1.6,3.8-2.5,5.9c-0.9,2.2-1.8,4.4-2.8,6.6c-0.9,2.2-1.8,4.4-2.7,6.6c-0.9,2.2-1.6,4.1-2.3,5.9
			c-0.3-0.1-0.6-0.1-0.9-0.1c-0.3,0-0.6-0.1-0.9-0.1c-0.3,0-0.6,0-0.9,0.1c-0.3,0-0.6,0.1-0.9,0.1c0.9-1.9,1.9-3.7,2.8-5.6
			c0.9-1.8,1.8-3.7,2.6-5.6c-0.7-1.6-1.4-3.5-2.3-5.5c-0.8-2.1-1.7-4.1-2.5-6c-0.8-2-1.6-3.8-2.2-5.4c-0.7-1.6-1.2-2.9-1.5-3.7
			c0.5,0.1,1.1,0.1,1.6,0.1c0.5,0,1.1,0.1,1.6,0.1c0.5,0,1.1,0,1.6-0.1c0.5,0,1-0.1,1.6-0.1c0.8,2.3,1.7,4.5,2.5,6.7
			c0.8,2.2,1.7,4.5,2.6,6.7C119.6,52.9,120.1,51.6,120.5,50.5z"/>
		<path fill="#94A545" d="M142.4,46.6c0.6-1.4,1.4-2.6,2.3-3.6c1-1,2.1-1.7,3.4-2.1c1.3-0.5,2.6-0.7,3.9-0.7c3.3,0,5.9,0.9,7.7,2.8
			c1.8,1.9,2.7,4.4,2.7,7.6c0,1.7-0.3,3.3-0.8,4.7c-0.5,1.4-1.2,2.6-2.2,3.6c-0.9,1-2,1.7-3.3,2.2c-1.3,0.5-2.7,0.7-4.2,0.7
			c-1.3,0-2.5-0.2-3.8-0.5c-1.2-0.3-2.4-0.9-3.4-1.7c-1-0.8-1.8-1.9-2.4-3.2c-0.6-1.3-0.9-2.9-0.9-4.8
			C141.5,49.7,141.8,48,142.4,46.6z M155.2,44.2c-0.6-1.4-1.7-2.1-3.1-2.1c-1.3,0-2.3,0.8-3.1,2.3c-0.8,1.5-1.1,3.9-1.1,7.2
			c0,1.2,0.1,2.3,0.2,3.3c0.1,1,0.4,1.9,0.7,2.7c0.3,0.8,0.8,1.3,1.3,1.8c0.5,0.4,1.2,0.6,2,0.6c2.7,0,4.1-3.3,4.1-10
			C156.1,47.5,155.8,45.6,155.2,44.2z"/>
		<path fill="#94A545" d="M176.2,41.6c0,0.2,0,0.4,0,0.6c0,0.2,0,0.3,0,0.5c0,0.2,0.1,0.4,0.1,0.5l-4-0.1v3.5c0,2.8,0,5.4,0.1,7.7
			c0.1,2.3,0.1,4.7,0.3,7c-0.4-0.1-0.8-0.1-1.4-0.1c-0.6,0-1.2,0-1.8,0c-0.6,0-1.2,0-1.8,0c-0.6,0-1,0-1.4,0.1
			c0.1-2.3,0.2-4.6,0.3-7c0.1-2.3,0.1-4.9,0.1-7.7v-3.5l-3,0c0.1-0.3,0.1-0.7,0.1-1.1c0-0.3,0-0.7-0.1-1.2l3,0.1
			c0.3-1.7,0.6-3.3,1.1-4.8c0.4-1.5,1-2.8,1.7-3.8c0.7-1.1,1.6-1.9,2.6-2.5c1.1-0.6,2.4-0.9,3.9-0.9c0.5,0,1.1,0.1,1.8,0.2
			c-0.1,0.5-0.1,1.1-0.1,1.9c0,0.8,0,1.5,0,2.3v1.4l-0.5,0.2c-0.6-0.3-0.7-0.3-1.4-0.6c-0.7-0.3-1.4-0.3-2.1-0.3
			c-0.8,0-1.5,0.1-1.9,0.4c-0.4,0.3-0.7,0.7-0.7,1.4c0,0.7,0.2,1.7,0.5,2.7c0.3,1,0.4,1.5,0.8,2.5l4-0.1
			C176.2,41.2,176.2,41.4,176.2,41.6z"/>
	</g>
	<g>
		<path fill="#94A545" d="M177.3,143.6c0.8-1.9,1.9-3.5,3.3-4.9c1.4-1.4,3.1-2.5,5.2-3.3c2-0.8,4.3-1.2,6.8-1.2
			c2.3,0,4.4,0.3,6.4,0.9c2,0.6,3.7,1.6,5.1,2.8c1.5,1.3,2.6,2.8,3.4,4.8c0.8,1.9,1.3,4.2,1.3,6.7c0,2.1-0.4,4.1-1.2,6
			c-0.8,1.9-1.9,3.5-3.4,4.9c-1.4,1.4-3.2,2.5-5.1,3.2c-2,0.8-4.2,1.2-6.6,1.2c-2.3,0-4.4-0.3-6.3-0.8c-2-0.6-3.7-1.5-5.2-2.7
			c-1.5-1.2-2.6-2.8-3.5-4.7c-0.9-1.9-1.3-4.2-1.3-6.9C176.2,147.4,176.6,145.5,177.3,143.6z M201.1,143.6c-0.5-1.5-1.1-2.7-1.9-3.7
			c-0.8-1-1.8-1.8-2.9-2.4c-1.2-0.6-2.4-0.8-3.8-0.8c-1.5,0-2.8,0.3-3.9,1c-1.2,0.7-2.1,1.6-2.9,2.8c-0.8,1.2-1.4,2.6-1.8,4.2
			c-0.4,1.6-0.6,3.3-0.6,5.1c0,2.3,0.2,4.2,0.7,5.8c0.5,1.6,1.1,2.8,2,3.8c0.8,1,1.8,1.6,2.9,2.1c1.1,0.4,2.2,0.6,3.4,0.6
			c1.3,0,2.5-0.3,3.7-0.8c1.2-0.5,2.2-1.4,3.1-2.5c0.9-1.1,1.6-2.5,2.1-4.2c0.5-1.7,0.8-3.7,0.8-6.1
			C201.8,146.8,201.5,145.1,201.1,143.6z"/>
		<path fill="#94A545" d="M211.9,139c-0.1-2.3-0.1-4.7-0.3-7.1c0.4,0.1,0.8,0.1,1.4,0.1c0.6,0,1.2,0.1,1.8,0.1c0.6,0,1.2,0,1.8-0.1
			c0.6,0,1-0.1,1.4-0.1c-0.1,1.2-0.1,2.4-0.2,3.6c0,1.2-0.1,2.6-0.1,4.1c0,1.5,0,3.3-0.1,5.3c0,2,0,4.3,0,7.1c0,0.4,0,0.7,0,0.8
			c0,0.1,0.1,0.2,0.2,0.2c0.1,0,0.4-0.2,0.8-0.7c0.4-0.4,1-1.1,1.7-1.9c0.7-0.8,1.5-1.8,2.4-3c0.9-1.2,1.9-2.4,3.1-3.9
			c0.3,0.1,0.7,0.1,1,0.1c0.3,0,0.7,0.1,1,0.1c0.3,0,0.7,0,1-0.1c0.4,0,0.8-0.1,1.4-0.1c-0.4,0.4-0.9,1-1.6,1.8
			c-0.7,0.7-1.5,1.5-2.2,2.3c-0.8,0.8-1.5,1.5-2.2,2.2c-0.7,0.7-1.2,1.2-1.5,1.6c0.1,0.2,0.4,0.6,0.7,1.2c0.4,0.6,0.8,1.4,1.4,2.2
			c0.5,0.9,1.1,1.8,1.7,2.8c0.6,1,1.2,1.9,1.7,2.8c0.5,0.9,1,1.7,1.4,2.4c0.4,0.7,0.7,1.1,0.8,1.3c-0.6-0.1-1.2-0.1-1.7-0.1
			s-1.1,0-1.7,0c-0.6,0-1.1,0-1.6,0s-1.1,0-1.6,0.1c-0.1-0.1-0.4-0.5-0.7-1.1c-0.3-0.6-0.7-1.2-1.1-1.9c-0.4-0.7-0.8-1.5-1.3-2.3
			c-0.4-0.8-0.9-1.5-1.3-2.2c-0.4-0.7-0.8-1.2-1.1-1.6c-0.3-0.4-0.5-0.6-0.6-0.6c-0.1,0-0.2,0.1-0.2,0.3c0,0.2-0.1,0.7-0.1,1.6v2.4
			c0,0.4,0,0.8,0,1.4c0,0.5,0,1.1,0,1.6c0,0.6,0,1.1,0.1,1.6c0,0.5,0.1,0.8,0.1,1c-0.5-0.1-1-0.1-1.5-0.1c-0.5,0-1,0-1.5,0
			c-0.5,0-1,0-1.5,0c-0.5,0-1,0-1.5,0.1c0.1-2.3,0.2-4.6,0.3-7c0.1-2.3,0.1-4.9,0.1-7.7v-2.8C212,143.9,212,141.4,211.9,139z"/>
		<path fill="#94A545" d="M233.3,139c-0.1-2.3-0.1-4.7-0.3-7.1c0.4,0.1,0.8,0.1,1.4,0.1c0.6,0,1.2,0.1,1.8,0.1c0.6,0,1.2,0,1.8-0.1
			c0.6,0,1-0.1,1.4-0.1c-0.1,2.4-0.2,4.8-0.3,7.1c-0.1,2.3-0.1,4.9-0.1,7.7v2.8c0,2.8,0,5.4,0.1,7.7c0.1,2.3,0.1,4.7,0.3,7
			c-0.4-0.1-0.8-0.1-1.4-0.1c-0.6,0-1.2,0-1.8,0c-0.6,0-1.2,0-1.8,0c-0.6,0-1,0-1.4,0.1c0.1-2.3,0.2-4.6,0.3-7
			c0.1-2.3,0.1-4.9,0.1-7.7v-2.8C233.4,143.9,233.4,141.4,233.3,139z"/>
		<path fill="#94A545" d="M247.8,143.8c1.4-0.5,2.8-0.8,4.1-0.8c1.1,0,2.2,0.1,3.1,0.4c1,0.3,1.8,0.7,2.5,1.2
			c0.7,0.6,1.2,1.3,1.6,2.2c0.4,0.9,0.6,2,0.6,3.2c0,1.8,0,3.5-0.1,5.1c0,1.6-0.1,3.1-0.1,4.6c0,0.7,0,1.2,0.1,1.6
			c0.1,0.4,0.2,0.7,0.4,0.9c0.2,0.2,0.5,0.3,0.8,0.4c0.3,0.1,0.7,0.1,1.1,0.1v1c-0.8,0.3-1.5,0.6-2.1,0.8c-0.6,0.2-1.2,0.3-1.8,0.3
			c-1.1,0-1.9-0.3-2.6-0.8c-0.7-0.5-1.2-1.3-1.5-2.2c-0.7,0.9-1.4,1.6-2.3,2.2c-0.9,0.5-2,0.8-3.3,0.8c-1.1,0-2-0.1-2.8-0.4
			c-0.8-0.3-1.4-0.7-1.9-1.2c-0.5-0.5-0.9-1.1-1.1-1.8c-0.2-0.7-0.3-1.3-0.3-2c0-0.9,0.1-1.8,0.4-2.4c0.3-0.7,0.7-1.3,1.3-1.8
			c0.6-0.5,1.2-0.9,2-1.2c0.8-0.3,1.6-0.6,2.6-0.8c1.2-0.3,2.1-0.5,2.8-0.7c0.7-0.2,1.2-0.4,1.6-0.6c0.3-0.2,0.6-0.4,0.7-0.7
			c0.1-0.3,0.1-0.6,0.1-0.9c0-1-0.4-1.9-1.1-2.6c-0.7-0.7-1.7-1.1-3-1.1c-0.5,0-1,0.1-1.5,0.2c-0.5,0.1-1,0.3-1.5,0.5
			c-0.5,0.2-0.9,0.5-1.3,0.7c-0.4,0.3-0.7,0.6-0.9,0.9h-0.3l-0.6-2.6C245.1,145.1,246.4,144.3,247.8,143.8z M254.1,154.9
			c0-0.6,0-1.2,0-1.7c-0.6,0.3-1.2,0.6-1.9,0.8c-0.7,0.2-1.3,0.5-1.8,0.8c-0.6,0.3-1,0.8-1.4,1.3c-0.4,0.6-0.5,1.4-0.5,2.5
			c0,1.1,0.2,1.9,0.7,2.4c0.4,0.6,1,0.8,1.8,0.8c0.9,0,1.7-0.4,2.3-1.1c0.6-0.7,0.9-1.8,0.9-3.2
			C254.1,156.5,254.1,155.5,254.1,154.9z"/>
		<path fill="#94A545" d="M264.9,139c-0.1-2.3-0.1-4.7-0.3-7.1c0.4,0.1,0.8,0.1,1.4,0.1c0.6,0,1.2,0.1,1.8,0.1c0.6,0,1.2,0,1.8-0.1
			c0.6,0,1-0.1,1.4-0.1c-0.1,2.4-0.2,4.8-0.3,7.1c-0.1,2.3-0.1,4.9-0.1,7.7l0.1,0.1c0.7-1.2,1.6-2.1,2.7-2.8c1.1-0.7,2.3-1,3.7-1
			c2.1,0,3.8,0.6,4.9,1.9c1.2,1.2,1.7,3.2,1.7,6c0,1.5,0,2.7-0.1,3.8c-0.1,1.1-0.1,2.2-0.1,3.3c0,0.9,0,1.9,0.1,3
			c0,1.1,0.1,2.1,0.1,3.1c-0.4-0.1-0.8-0.1-1.4-0.1s-1.2,0-1.8,0c-0.6,0-1.2,0-1.8,0c-0.6,0-1,0-1.4,0.1c0.2-1.5,0.3-3.2,0.4-5.2
			c0.1-2,0.1-4.3,0.1-6.9c0-1.8-0.3-3.1-0.9-4c-0.6-0.8-1.5-1.3-2.6-1.3c-1.3,0-2.2,0.6-2.8,1.7c-0.6,1.1-0.9,2.6-0.9,4.6v1.7
			c0,0.4,0,1,0,1.7c0,0.8,0,1.6,0.1,2.5c0,0.9,0.1,1.8,0.1,2.7c0,0.9,0.1,1.7,0.2,2.4c-0.4-0.1-0.8-0.1-1.4-0.1c-0.6,0-1.2,0-1.8,0
			c-0.6,0-1.2,0-1.8,0c-0.6,0-1,0-1.4,0.1c0.1-2.3,0.2-4.6,0.3-7c0.1-2.3,0.1-4.9,0.1-7.7v-2.8C265,143.9,265,141.4,264.9,139z"/>
		<path fill="#94A545" d="M288,149.5c0.6-1.4,1.4-2.6,2.3-3.6c1-1,2.1-1.7,3.4-2.1c1.3-0.5,2.6-0.7,3.9-0.7c3.3,0,5.9,0.9,7.7,2.8
			c1.8,1.9,2.7,4.4,2.7,7.6c0,1.7-0.3,3.3-0.8,4.7c-0.5,1.4-1.2,2.6-2.2,3.6c-0.9,1-2,1.7-3.3,2.2s-2.7,0.7-4.2,0.7
			c-1.3,0-2.5-0.2-3.8-0.5c-1.2-0.3-2.4-0.9-3.4-1.7c-1-0.8-1.8-1.9-2.4-3.2c-0.6-1.3-0.9-2.9-0.9-4.8
			C287.1,152.6,287.4,150.9,288,149.5z M300.8,147.1c-0.6-1.4-1.7-2.1-3.1-2.1c-1.3,0-2.3,0.8-3.1,2.3c-0.8,1.5-1.1,3.9-1.1,7.2
			c0,1.2,0.1,2.3,0.2,3.3c0.1,1,0.4,1.9,0.7,2.7c0.3,0.8,0.8,1.3,1.3,1.8c0.5,0.4,1.2,0.6,2,0.6c2.7,0,4.1-3.3,4.1-10
			C301.7,150.4,301.4,148.4,300.8,147.1z"/>
		<path fill="#94A545" d="M317.2,146.8c0.8-1.2,1.7-2.1,2.8-2.8c1.1-0.7,2.3-1,3.7-1c1.3,0,2.4,0.3,3.3,1c0.9,0.7,1.6,1.7,2.2,3
			c0.9-1.3,1.9-2.3,3-3c1.1-0.7,2.3-1,3.6-1c2.1,0,3.8,0.6,4.9,1.9c1.2,1.2,1.7,3.2,1.7,6c0,1.5,0,2.7-0.1,3.8
			c-0.1,1.1-0.1,2.2-0.1,3.3c0,0.9,0,1.9,0.1,3c0,1.1,0.1,2.1,0.2,3.1c-0.4-0.1-0.8-0.1-1.4-0.1c-0.6,0-1.2,0-1.8,0
			c-0.6,0-1.2,0-1.8,0c-0.6,0-1,0-1.4,0.1c0.2-1.5,0.3-3.2,0.4-5.2c0.1-2,0.1-4.3,0.1-6.9c0-1.8-0.3-3.1-0.9-4
			c-0.6-0.8-1.4-1.3-2.5-1.3c-0.7,0-1.2,0.2-1.7,0.5c-0.4,0.3-0.8,0.7-1,1.2c-0.3,0.5-0.4,1-0.5,1.6c-0.1,0.6-0.1,1.1-0.1,1.6v3.1
			c0,1.7,0,3.4,0.1,4.9c0,1.5,0.1,3,0.3,4.4c-0.4-0.1-0.8-0.1-1.4-0.1c-0.6,0-1.2,0-1.8,0c-0.7,0-1.3,0-1.8,0c-0.5,0-1,0-1.4,0.1
			c0.1-1.4,0.2-2.9,0.3-4.4c0-1.5,0.1-3.2,0.1-4.9v-2.6c0-1.7-0.2-3-0.6-4c-0.4-0.9-1.2-1.4-2.4-1.4c-1.3,0-2.2,0.6-2.8,1.7
			c-0.6,1.1-0.9,2.6-0.9,4.6v1.7c0,1.7,0,3.4,0.1,4.9c0,1.5,0.1,3,0.3,4.4c-0.4-0.1-0.8-0.1-1.4-0.1c-0.6,0-1.2,0-1.8,0
			c-0.7,0-1.3,0-1.8,0c-0.5,0-1,0-1.4,0.1c0.1-1.4,0.2-2.9,0.3-4.4c0-1.5,0.1-3.2,0.1-4.9v-1.7c0-1.7,0-3.4-0.1-4.9
			c0-1.5-0.1-3.1-0.3-4.6c0.5,0.1,1,0.1,1.5,0.1c0.5,0,1,0.1,1.5,0.1c0.5,0,1,0,1.5-0.1c0.5,0,1-0.1,1.6-0.1L317.2,146.8
			L317.2,146.8z"/>
		<path fill="#94A545" d="M350.5,143.8c1.4-0.5,2.8-0.8,4.1-0.8c1.1,0,2.2,0.1,3.1,0.4c1,0.3,1.8,0.7,2.5,1.2
			c0.7,0.6,1.2,1.3,1.6,2.2c0.4,0.9,0.6,2,0.6,3.2c0,1.8,0,3.5-0.1,5.1c0,1.6-0.1,3.1-0.1,4.6c0,0.7,0,1.2,0.1,1.6
			c0.1,0.4,0.2,0.7,0.4,0.9c0.2,0.2,0.5,0.3,0.8,0.4c0.3,0.1,0.7,0.1,1.1,0.1v1c-0.8,0.3-1.5,0.6-2.1,0.8c-0.6,0.2-1.2,0.3-1.8,0.3
			c-1.1,0-1.9-0.3-2.6-0.8c-0.7-0.5-1.2-1.3-1.5-2.2c-0.7,0.9-1.4,1.6-2.3,2.2c-0.9,0.5-2,0.8-3.3,0.8c-1.1,0-2-0.1-2.8-0.4
			c-0.8-0.3-1.4-0.7-1.9-1.2c-0.5-0.5-0.9-1.1-1.1-1.8c-0.2-0.7-0.3-1.3-0.3-2c0-0.9,0.1-1.8,0.4-2.4c0.3-0.7,0.7-1.3,1.3-1.8
			c0.6-0.5,1.2-0.9,2-1.2c0.8-0.3,1.6-0.6,2.6-0.8c1.2-0.3,2.1-0.5,2.8-0.7c0.7-0.2,1.2-0.4,1.6-0.6c0.3-0.2,0.6-0.4,0.7-0.7
			c0.1-0.3,0.1-0.6,0.1-0.9c0-1-0.4-1.9-1.1-2.6c-0.7-0.7-1.7-1.1-3-1.1c-0.5,0-1,0.1-1.5,0.2c-0.5,0.1-1,0.3-1.5,0.5
			c-0.5,0.2-0.9,0.5-1.3,0.7c-0.4,0.3-0.7,0.6-0.9,0.9h-0.3l-0.6-2.6C347.8,145.1,349.1,144.3,350.5,143.8z M356.8,154.9
			c0-0.6,0-1.2,0-1.7c-0.6,0.3-1.2,0.6-1.9,0.8c-0.7,0.2-1.3,0.5-1.8,0.8c-0.6,0.3-1,0.8-1.4,1.3c-0.4,0.6-0.5,1.4-0.5,2.5
			c0,1.1,0.2,1.9,0.7,2.4c0.4,0.6,1,0.8,1.8,0.8c0.9,0,1.7-0.4,2.3-1.1c0.6-0.7,0.9-1.8,0.9-3.2
			C356.7,156.5,356.7,155.5,356.8,154.9z"/>
	</g>
</g>
</svg>
